# xmcd
#
# Track frame offsets:
#	150
#	12541
#	21051
#	30476
#	41384
#	50713
#	65075
#	80395
#	90465
#	98664
#	108079
#	123709
#	136300
#	168963
#	185727
#	197346
#	215838
#	228754
#	240230
#
# Disc length: 3373 seconds
#
# Revision: 0
# Processed by: cddbd v1.5.2PL0 Copyright (c) Steve Scherf et al.
# Submitted via: EasyCDDAExtractor 10.0.2.1
#
DISCID=f40d2b13
DTITLE=Johnny Cash - Cash and Dylan
DYEAR=2006
DGENRE=Country
TTITLE0=I Walk The Line
TTITLE1=I Guess Things Happen That Way
TTITLE2=Matchbox
TTITLE3=I Threw It All Away
TTITLE4=Big River
TTITLE5=Blues Yodel #1
TTITLE6=One Too Many Mornings #1
TTITLE7=T Is For Texas
TTITLE8=Mountain Dew
TTITLE9=Livin' the Blues
TTITLE10=You Are My Sunshine (live '69
TTITLE11=Blues Yodel #2
TTITLE12=Careless Love
TTITLE13=Girl From the North County
TTITLE14=I Still Miss Someone
TTITLE15=One Too Many Mornings #2
TTITLE16=Just A Closer Walk With Thee
TTITLE17=Ring of Fire
TTITLE18=That's Alright Mama
EXTD=
EXTT0=
EXTT1=
EXTT2=
EXTT3=
EXTT4=
EXTT5=
EXTT6=
EXTT7=
EXTT8=
EXTT9=
EXTT10=
EXTT11=
EXTT12=
EXTT13=
EXTT14=
EXTT15=
EXTT16=
EXTT17=
EXTT18=
PLAYORDER=
